# Blender v2.83.5 OBJ File: 'Arrow.blend'
# www.blender.org
mtllib Arrow.mtl
o Cube
v 4.809800 1.000000 0.017109
v 4.809800 -1.000000 0.017109
v 4.809800 1.000000 -0.007785
v 4.809800 -1.000000 -0.007785
v -4.809800 1.000000 -1.000000
v -4.809800 -1.000000 -1.000000
v -4.809800 1.000000 1.000000
v -4.809800 -1.000000 1.000000
v -4.809800 -1.000000 -4.278849
v -4.809800 -1.000000 4.038807
v -4.809800 1.000000 4.038807
v -4.809800 1.000000 -4.278849
v -12.526318 1.000000 -1.000000
v -12.526318 -1.000000 -1.000000
v -12.526318 1.000000 1.000000
v -12.526318 -1.000000 1.000000
vt 0.625000 0.500000
vt 0.875000 0.500000
vt 0.875000 0.750000
vt 0.625000 0.750000
vt 0.375000 0.750000
vt 0.625000 1.000000
vt 0.375000 1.000000
vt 0.625000 0.000000
vt 0.625000 0.250000
vt 0.625000 0.250000
vt 0.625000 0.000000
vt 0.125000 0.500000
vt 0.375000 0.500000
vt 0.125000 0.750000
vt 0.375000 0.250000
vt 0.625000 0.250000
vt 0.375000 0.000000
vt 0.375000 0.250000
vt 0.375000 0.000000
vt 0.625000 0.000000
vt 0.375000 0.000000
vt 0.375000 0.250000
vn 0.0000 1.0000 0.0000
vn 0.3878 0.0000 0.9218
vn 0.0000 -1.0000 0.0000
vn -1.0000 0.0000 0.0000
vn 0.4078 0.0000 -0.9131
vn 0.0000 0.0000 1.0000
vn 0.0000 0.0000 -1.0000
usemtl Material
s off
f 1/1/1 12/2/1 11/3/1 3/4/1
f 4/5/2 3/4/2 11/6/2 10/7/2
f 7/8/1 5/9/1 13/10/1 15/11/1
f 9/12/3 2/13/3 4/5/3 10/14/3
f 2/13/4 1/1/4 3/4/4 4/5/4
f 9/15/5 12/16/5 1/1/5 2/13/5
f 8/17/6 6/18/6 9/15/6 10/19/6
f 7/8/4 8/17/4 10/19/4 11/20/4
f 6/18/4 5/9/4 12/16/4 9/15/4
f 5/9/6 7/8/6 11/20/6 12/16/6
f 16/21/4 15/11/4 13/10/4 14/22/4
f 8/17/6 7/8/6 15/11/6 16/21/6
f 5/9/7 6/18/7 14/22/7 13/10/7
f 6/18/3 8/17/3 16/21/3 14/22/3
